<?xml version="1.0" encoding="utf-8"?>
<!-- Generator: Adobe Illustrator 23.0.1, SVG Export Plug-In . SVG Version: 6.00 Build 0)  -->
<svg version="1.1" id="Laag_1" xmlns="http://www.w3.org/2000/svg" xmlns:xlink="http://www.w3.org/1999/xlink" x="0px" y="0px"
	 viewBox="0 0 24 111" style="enable-background:new 0 0 24 111;" xml:space="preserve">
<g>
	<g>
		<path d="M11.8,10.2c-0.2-0.2-0.6-0.4-0.9-0.4c-0.3,0-0.7,0.1-0.9,0.4l-2.7,2.9c-0.2,0.3-0.3,0.6-0.2,0.9c0.1,0.3,0.4,0.5,0.8,0.5
			H9v5c0,0.6,0.5,1.1,1.1,1.1h1.8c0.6,0,1.1-0.5,1.1-1.1v-5h0.9c0.3,0,0.7-0.2,0.8-0.5s0.1-0.7-0.2-0.9L11.8,10.2z M12.7,13.6
			c-0.3,0-0.6,0.3-0.6,0.6v5.3c0,0.1-0.1,0.2-0.2,0.2h-1.8c-0.1,0-0.2-0.1-0.2-0.2v-5.3c0-0.3-0.3-0.6-0.6-0.6H8.2l2.6-2.8
			c0.1-0.1,0.2-0.1,0.2-0.1c0,0,0.1,0,0.2,0.1l2.6,2.8H12.7z M12.7,13.6"/>
		<path d="M7.9,9.1H14c0.3,0,0.5-0.2,0.5-0.5c0-0.3-0.2-0.5-0.5-0.5H7.9c-0.3,0-0.5,0.2-0.5,0.5C7.4,8.9,7.6,9.1,7.9,9.1L7.9,9.1z
			 M7.9,9.1"/>
		<path d="M17.7,0H7.4C6.2,0,5.3,1,5.3,2.1v2.1L3.6,6.1c0,0,0,0,0,0c0,0,0,0,0,0.1c0,0,0,0,0,0c0,0,0,0,0,0c0,0,0,0,0,0c0,0,0,0,0,0
			c0,0,0,0,0,0c0,0,0,0,0,0c0,0,0,0,0,0.1c0,0,0,0,0,0c0,0,0,0,0,0.1c0,0,0,0,0,0c0,0,0,0,0,0.1c0,0,0,0,0,0
			C3.2,6.9,3.1,7.2,3.1,7.5v14.2c0,1.2,1,2.3,2.3,2.3h11.2c1.2,0,2.2-1,2.3-2.2c1.2,0,2.1-1,2.1-2.1V3.2C20.9,1.4,19.5,0,17.7,0
			L17.7,0z M7,3.8v2.4c0,0.1-0.1,0.2-0.2,0.2H4.6L7,3.8z M18.8,4.3c0-1.2-1-2.3-2.3-2.3H8.2c-0.3,0-0.6,0.1-0.9,0.2c0,0,0,0,0,0
			c0,0,0,0,0,0c0,0,0,0,0,0c0,0,0,0,0,0c0,0,0,0,0,0c0,0,0,0,0,0c0,0,0,0,0,0c0,0,0,0-0.1,0c0,0,0,0,0,0c0,0,0,0-0.1,0c0,0,0,0,0,0
			c0,0,0,0-0.1,0c0,0,0,0,0,0c0,0,0,0-0.1,0.1c0,0,0,0,0,0c0,0,0,0.1-0.1,0.1c0,0,0,0,0,0L6.2,3.2V2.1c0-0.7,0.5-1.2,1.2-1.2h10.3
			C19,0.9,20,2,20,3.2v16.5c0,0.6-0.5,1.2-1.1,1.2V4.3z M17.9,21.7c0,0.7-0.6,1.3-1.3,1.3H5.3c-0.7,0-1.3-0.6-1.3-1.3V7.5
			c0,0,0-0.1,0-0.1h2.7c0.7,0,1.2-0.5,1.2-1.2V3C8,3,8.1,3,8.2,3h8.4c0.7,0,1.3,0.6,1.3,1.3V21.7z M20,19.7"/>
	</g>
	<g>
		<path d="M18.6,50.4c0.3,0,0.5-0.2,0.5-0.5s-0.2-0.5-0.5-0.5c-0.3,0-0.5,0.2-0.5,0.5S18.3,50.4,18.6,50.4L18.6,50.4z M18.6,50.4"/>
		<path d="M10.8,50.4c0.3,0,0.5-0.2,0.5-0.5s-0.2-0.5-0.5-0.5c-0.3,0-0.5,0.2-0.5,0.5S10.5,50.4,10.8,50.4L10.8,50.4z M10.8,50.4"/>
		<path d="M23.9,35.6c-0.1-0.1-0.2-0.2-0.4-0.2H6.7l-1.1-4.5c-0.2-0.6-0.7-1.1-1.4-1.1H1.4c-0.8,0-1.4,0.6-1.4,1.4s0.6,1.4,1.4,1.4
			h1.7l3.5,14.9c0.2,0.6,0.7,1.1,1.4,1.1h0.9c-0.3,0.4-0.5,0.9-0.5,1.4c0,1.3,1.1,2.3,2.3,2.3s2.3-1.1,2.3-2.3c0-0.5-0.2-1-0.5-1.4
			h4c-0.3,0.4-0.5,0.9-0.5,1.4c0,1.3,1.1,2.3,2.3,2.3s2.3-1.1,2.3-2.3c0-0.5-0.2-1-0.5-1.4h0c0.8,0,1.4-0.6,1.4-1.4
			c0-0.8-0.6-1.4-1.4-1.4H9.1l-0.4-1.9h12.3c0.6,0,1.2-0.4,1.4-1.1L24,36C24,35.8,24,35.7,23.9,35.6z M10,36.3l0.4,2.8H7.5l-0.7-2.8
			H10z M10.8,51.3c-0.8,0-1.4-0.6-1.4-1.4c0-0.8,0.6-1.4,1.4-1.4s1.4,0.6,1.4,1.4C12.2,50.7,11.6,51.3,10.8,51.3z M18.6,51.3
			c-0.8,0-1.4-0.6-1.4-1.4c0-0.8,0.6-1.4,1.4-1.4s1.4,0.6,1.4,1.4C20,50.7,19.3,51.3,18.6,51.3z M20.4,46.6c0.3,0,0.5,0.2,0.5,0.5
			c0,0.3-0.2,0.5-0.5,0.5H8c-0.2,0-0.4-0.1-0.5-0.4L3.8,31.6H1.4c-0.3,0-0.5-0.2-0.5-0.5c0-0.3,0.2-0.5,0.5-0.5h2.8
			c0.2,0,0.4,0.1,0.5,0.4l2.9,12.4c0,0,0,0,0,0l0.7,3.2H20.4z M8.4,42.9l-0.7-2.8h2.7l0.4,2.8H8.4z M11,36.3h3.4v2.8h-3L11,36.3z
			 M11.8,42.9l-0.4-2.8h2.9v2.8H11.8z M17.8,42.9h-2.5v-2.8h2.9L17.8,42.9z M18.3,39.1h-3v-2.8h3.4L18.3,39.1z M21.4,42.5
			c-0.1,0.2-0.2,0.4-0.5,0.4h-2.2l0.4-2.8H22L21.4,42.5z M22.2,39.1h-3l0.4-2.8h3.3L22.2,39.1z"/>
	</g>
	<g>
		<path d="M8.8,63.2c0,2.8,2.3,5.2,5.2,5.2c2.8,0,5.2-2.3,5.2-5.2c0-2.8-2.3-5.2-5.2-5.2C11.1,58,8.8,60.3,8.8,63.2L8.8,63.2z
			 M18.2,63.2c0,2.3-1.9,4.2-4.2,4.2c-2.3,0-4.2-1.9-4.2-4.2c0-2.3,1.9-4.2,4.2-4.2C16.3,58.9,18.2,60.8,18.2,63.2L18.2,63.2z
			 M18.2,63.2"/>
		<path d="M5.4,81.9c0.2,0.2,0.5,0.2,0.7,0l2.3-2.2c0.4-0.4,0.5-1,0.3-1.5l0.5-0.5c0.3-0.3,0.6-0.4,1-0.4h6.2c1.1,0,2.2-0.4,2.9-1.2
			c0,0-0.2,0.3,4.3-5.1c0.7-0.8,0.6-2-0.2-2.6c-0.8-0.7-2-0.6-2.6,0.2l-2.8,2.8c-0.3-0.4-0.9-0.7-1.5-0.7h-5.2
			c-0.7-0.3-1.5-0.5-2.3-0.5c-2.3,0-4.2,1-5.3,3c-0.4-0.1-0.9,0.1-1.3,0.4l-2.2,2.2c-0.2,0.2-0.2,0.5,0,0.7L5.4,81.9z M8.9,71.2
			c0.7,0,1.4,0.1,2.1,0.4c0.1,0,0.1,0,0.2,0h5.3c0.5,0,0.9,0.4,0.9,0.9c0,0.5-0.4,0.9-0.9,0.9h-5.8c-0.3,0-0.5,0.2-0.5,0.5
			c0,0.3,0.2,0.5,0.5,0.5h5.8c1,0,1.9-0.8,1.9-1.9c0-0.1,0-0.2,0-0.2c2.7-2.7,3.1-3.1,3.1-3.2c0.3-0.4,0.9-0.4,1.3-0.1
			c0.4,0.3,0.4,0.9,0.1,1.3l-4.2,5c-0.6,0.6-1.4,0.9-2.3,0.9h-6.2c-0.6,0-1.2,0.2-1.6,0.7l-0.4,0.4l-3.7-3.7
			C5.3,72.1,6.9,71.2,8.9,71.2L8.9,71.2z M3,74.3c0.2-0.2,0.4-0.2,0.6-0.1c0.1,0-0.2-0.2,4.1,4c0.2,0.2,0.2,0.5,0,0.7l-1.9,1.9
			l-4.6-4.6L3,74.3z M3,74.3"/>
		<path d="M13.4,60.3v0.5c-0.5,0.2-0.9,0.7-0.9,1.3c0,0.8,0.6,1.4,1.4,1.4c0.3,0,0.5,0.2,0.5,0.5c0,0.3-0.2,0.5-0.5,0.5
			c-0.2,0-0.4-0.1-0.6-0.4c-0.2-0.2-0.5-0.2-0.7-0.1c-0.2,0.2-0.2,0.5-0.1,0.7c0.3,0.3,0.5,0.5,0.9,0.6V66c0,0.3,0.2,0.5,0.5,0.5
			c0.3,0,0.5-0.2,0.5-0.5v-0.5c0.5-0.2,0.9-0.7,0.9-1.3c0-0.8-0.6-1.4-1.4-1.4c-0.3,0-0.5-0.2-0.5-0.5c0-0.3,0.2-0.5,0.5-0.5
			c0.2,0,0.3,0.1,0.5,0.2c0.2,0.2,0.5,0.2,0.7,0c0.2-0.2,0.2-0.5,0-0.7c-0.2-0.2-0.5-0.4-0.7-0.4v-0.5c0-0.3-0.2-0.5-0.5-0.5
			C13.6,59.9,13.4,60.1,13.4,60.3L13.4,60.3z M13.4,60.3"/>
	</g>
	<g>
		<path d="M19.7,95l1-1c0.5-0.5,0.5-1.4,0-2c-0.5-0.5-1.4-0.5-2,0l-1.1,1.1c-1.1-0.8-2.4-1.3-3.7-1.6v-1.4h0.9
			c0.3,0,0.5-0.2,0.5-0.5v-1.2c0-0.8-0.6-1.4-1.4-1.4h-3.7c-0.8,0-1.4,0.6-1.4,1.4v1.2c0,0.3,0.2,0.5,0.5,0.5h0.9v1.4
			c-1.3,0.3-2.6,0.8-3.7,1.6L5.3,92c-0.5-0.5-1.4-0.5-2,0c-0.5,0.5-0.5,1.4,0,2l1,1c-1.4,1.7-2.2,3.9-2.2,6.2c0,5.4,4.4,9.8,9.8,9.8
			s9.8-4.4,9.8-9.8C21.8,98.9,21.1,96.7,19.7,95L19.7,95z M19.4,92.7c0.2-0.2,0.5-0.2,0.7,0c0.2,0.2,0.2,0.5,0,0.7l-1,1
			c-0.2-0.2-0.4-0.4-0.7-0.6L19.4,92.7z M9.7,88.4c0-0.3,0.2-0.5,0.5-0.5h3.7c0.3,0,0.5,0.2,0.5,0.5v0.8H9.7V88.4z M12.9,90.1v1.3
			c-0.6-0.1-1.3-0.1-1.9,0v-1.3H12.9z M4,92.7c0.2-0.2,0.5-0.2,0.7,0l1,1c-0.2,0.2-0.5,0.4-0.7,0.6l-1-1C3.8,93.1,3.8,92.8,4,92.7
			L4,92.7z M12,110.1c-4.9,0-8.9-4-8.9-8.9c0-2.2,0.8-4.3,2.2-5.9c0.4-0.4,0.8-0.9,1.3-1.2c1.2-0.9,2.6-1.5,4.1-1.7
			c0.4-0.1,0.9-0.1,1.3-0.1c0.4,0,0.9,0,1.3,0.1c1.5,0.2,2.9,0.8,4.1,1.7c0.5,0.4,0.9,0.8,1.3,1.2c1.4,1.6,2.2,3.7,2.2,5.9
			C20.9,106.1,16.9,110.1,12,110.1L12,110.1z M12,110.1"/>
		<path d="M12,102.6c0.8,0,1.4-0.6,1.4-1.4c0-0.6-0.4-1.1-0.9-1.3v-3.4c0-0.3-0.2-0.5-0.5-0.5c-0.3,0-0.5,0.2-0.5,0.5v3.4
			c-0.5,0.2-0.9,0.7-0.9,1.3C10.6,101.9,11.2,102.6,12,102.6L12,102.6z M12,100.7c0.3,0,0.5,0.2,0.5,0.5s-0.2,0.5-0.5,0.5
			c-0.3,0-0.5-0.2-0.5-0.5S11.7,100.7,12,100.7L12,100.7z M12,100.7"/>
		<path d="M17,96.2C17,96.2,17,96.2,17,96.2C17,96.2,17,96.2,17,96.2c-0.9-0.9-1.9-1.5-3-1.8c-0.2-0.1-0.5,0.1-0.6,0.3
			c-0.1,0.2,0.1,0.5,0.3,0.6c0.8,0.2,1.6,0.7,2.2,1.2l-0.3,0.3c-0.2,0.2-0.2,0.5,0,0.7c0.1,0.1,0.2,0.1,0.3,0.1c0.1,0,0.2,0,0.3-0.1
			l0.3-0.3c0.8,1,1.4,2.2,1.5,3.5h-0.5c-0.3,0-0.5,0.2-0.5,0.5c0,0.3,0.2,0.5,0.5,0.5h0.5c-0.1,1.3-0.6,2.5-1.5,3.5l-0.3-0.3
			c-0.2-0.2-0.5-0.2-0.7,0c-0.2,0.2-0.2,0.5,0,0.7l0.3,0.3c-1,0.8-2.2,1.4-3.5,1.5v-0.5c0-0.3-0.2-0.5-0.5-0.5
			c-0.3,0-0.5,0.2-0.5,0.5v0.5c-1.3-0.1-2.5-0.6-3.5-1.5l0.3-0.3c0.2-0.2,0.2-0.5,0-0.7c-0.2-0.2-0.5-0.2-0.7,0l-0.3,0.3
			c-0.8-1-1.4-2.2-1.5-3.5h0.5c0.3,0,0.5-0.2,0.5-0.5s-0.2-0.5-0.5-0.5H5.9c0.1-1.3,0.6-2.5,1.5-3.5l0.3,0.3
			c0.1,0.1,0.2,0.1,0.3,0.1c0.1,0,0.2,0,0.3-0.1c0.2-0.2,0.2-0.5,0-0.7L8,96.5c0.7-0.6,1.4-1,2.2-1.2c0.2-0.1,0.4-0.3,0.3-0.6
			c-0.1-0.2-0.3-0.4-0.6-0.3c-1.1,0.3-2.1,0.9-3,1.7c0,0,0,0,0,0c0,0,0,0,0,0c-1.3,1.3-2,3.1-2,4.9c0,1.9,0.7,3.6,2,4.9c0,0,0,0,0,0
			c0,0,0,0,0,0c1.3,1.3,3.1,2,4.9,2c1.9,0,3.6-0.7,4.9-2c0,0,0,0,0,0c0,0,0,0,0,0c1.3-1.3,2-3.1,2-4.9C19,99.3,18.3,97.5,17,96.2
			L17,96.2z M17,96.2"/>
	</g>
</g>
</svg>
